<svg xmlns="http://www.w3.org/2000/svg" version="1.1" xmlns:xlink="http://www.w3.org/1999/xlink" xmlns:svgjs="http://svgjs.dev/svgjs"  preserveAspectRatio="none" viewBox="0 0 1440 250">
    <g mask="url(&quot;#SvgjsMask1009&quot;)" fill="none">
        <path d="M18 250L268 0L377.5 0L127.5 250z" fill="url(&quot;#SvgjsLinearGradient1010&quot;)"></path>
        <path d="M274.6 250L524.6 0L596.6 0L346.6 250z" fill="url(&quot;#SvgjsLinearGradient1010&quot;)"></path>
        <path d="M507.20000000000005 250L757.2 0L1057.2 0L807.2 250z" fill="url(&quot;#SvgjsLinearGradient1010&quot;)"></path>
        <path d="M742.8000000000001 250L992.8000000000001 0L1228.3000000000002 0L978.3000000000001 250z" fill="url(&quot;#SvgjsLinearGradient1010&quot;)"></path>
        <path d="M1420 250L1170 0L939 0L1189 250z" fill="url(&quot;#SvgjsLinearGradient1011&quot;)"></path>
        <path d="M1199.4 250L949.4000000000001 0L733.4000000000001 0L983.4000000000001 250z" fill="url(&quot;#SvgjsLinearGradient1011&quot;)"></path>
        <path d="M950.8 250L700.8 0L423.29999999999995 0L673.3 250z" fill="url(&quot;#SvgjsLinearGradient1011&quot;)"></path>
        <path d="M722.1999999999999 250L472.19999999999993 0L124.19999999999993 0L374.19999999999993 250z" fill="url(&quot;#SvgjsLinearGradient1011&quot;)"></path>
        <path d="M1261.3378854127377 250L1440 71.33788541273765L1440 250z" fill="url(&quot;#SvgjsLinearGradient1010&quot;)"></path>
        <path d="M0 250L178.66211458726235 250L 0 71.33788541273765z" fill="url(&quot;#SvgjsLinearGradient1011&quot;)"></path>
    </g>
    <defs>
        <mask id="SvgjsMask1009">
            <rect width="1440" height="250" fill="#ffffff"></rect>
        </mask>
        <linearGradient x1="0%" y1="100%" x2="100%" y2="0%" id="SvgjsLinearGradient1010">
            <stop stop-color="rgba(15, 70, 185, 0.49)" offset="0"></stop>
            <stop stop-opacity="0" stop-color="rgba(15, 70, 185, 0.49)" offset="0.66"></stop>
        </linearGradient>
        <linearGradient x1="100%" y1="100%" x2="0%" y2="0%" id="SvgjsLinearGradient1011">
            <stop stop-color="rgba(15, 70, 185, 0.49)" offset="0"></stop>
            <stop stop-opacity="0" stop-color="rgba(15, 70, 185, 0.49)" offset="0.66"></stop>
        </linearGradient>
    </defs>
</svg>